<?xml version="1.0" encoding="UTF-8" standalone="no"?>
<!-- Created with Inkscape (http://www.inkscape.org/) -->

<svg
   width="265.11252mm"
   height="265.11252mm"
   viewBox="0 0 265.11252 265.11252"
   version="1.1"
   id="svg5"
   inkscape:version="1.2.1 (9c6d41e410, 2022-07-14, custom)"
   sodipodi:docname="fav-icon.svg"
   inkscape:export-filename="fav-icon-192.png"
   inkscape:export-xdpi="18.395208"
   inkscape:export-ydpi="18.395208"
   xmlns:inkscape="http://www.inkscape.org/namespaces/inkscape"
   xmlns:sodipodi="http://sodipodi.sourceforge.net/DTD/sodipodi-0.dtd"
   xmlns:xlink="http://www.w3.org/1999/xlink"
   xmlns="http://www.w3.org/2000/svg"
   xmlns:svg="http://www.w3.org/2000/svg">
  <sodipodi:namedview
     id="namedview7"
     pagecolor="#ffffff"
     bordercolor="#666666"
     borderopacity="1.0"
     inkscape:showpageshadow="2"
     inkscape:pageopacity="0.0"
     inkscape:pagecheckerboard="0"
     inkscape:deskcolor="#d1d1d1"
     inkscape:document-units="mm"
     showgrid="false"
     inkscape:zoom="0.4204826"
     inkscape:cx="508.93901"
     inkscape:cy="531.5321"
     inkscape:window-width="1676"
     inkscape:window-height="1026"
     inkscape:window-x="0"
     inkscape:window-y="20"
     inkscape:window-maximized="1"
     inkscape:current-layer="layer1" />
  <defs
     id="defs2">
    <linearGradient
       inkscape:collect="always"
       id="linearGradient1103">
      <stop
         style="stop-color:#f6cee6;stop-opacity:1;"
         offset="0"
         id="stop1099" />
      <stop
         style="stop-color:#d767b2;stop-opacity:1;"
         offset="1"
         id="stop1101" />
    </linearGradient>
    <linearGradient
       inkscape:collect="always"
       xlink:href="#linearGradient1103"
       id="linearGradient1105"
       x1="29.024117"
       y1="34.384869"
       x2="246.02867"
       y2="204.73302"
       gradientUnits="userSpaceOnUse" />
  </defs>
  <g
     inkscape:label="Layer 1"
     inkscape:groupmode="layer"
     id="layer1"
     transform="translate(-1.868079,-8.1523868)">
    <rect
       style="opacity:0.95;fill:#ee5200;stroke:#000000;stroke-width:0.529167;stroke-linecap:round;paint-order:fill markers stroke"
       id="rect808"
       width="264.58334"
       height="264.58334"
       x="2.1326625"
       y="8.4169703"
       ry="0" />
    <path
       style="fill:url(#linearGradient1105);fill-opacity:1;fill-rule:evenodd;stroke:#000000;stroke-width:0.264583px;stroke-linecap:butt;stroke-linejoin:miter;stroke-opacity:1"
       d="m 135.12198,135.24971 c 0,0 -27.81575,145.4461 -90.68629,89.82831 -62.870544,-55.61779 81.53316,-97.58263 81.53316,-97.58263 0,0 -120.4075237,49.36334 -119.0554663,-8.48208 1.3520574,-57.845429 118.9021463,0.16343 118.9021463,0.16343 0,0 -140.946086,-52.535636 -93.595642,-93.342513 47.350444,-40.806877 100.373202,88.910053 100.373202,88.910053 0,0 -42.868168,-96.481997 12.4547,-92.824217 55.32287,3.65778 -3.2374,98.193677 -3.2374,98.193677 0,0 63.98273,-134.204218 113.86068,-61.480444 49.87795,72.723774 -109.55553,71.875864 -109.55553,71.875864 0,0 112.05989,91.00759 28.68645,121.09177 -83.37344,30.08418 -39.68001,-116.35122 -39.68001,-116.35122 z"
       id="path947"
       sodipodi:nodetypes="czczczczczczc" />
  </g>
</svg>
